<?xml version="1.0" encoding="UTF-8"?>
<svg version="1.1" xmlns="http://www.w3.org/2000/svg" width="512" height="512">
<path d="M0 0 C0.81056168 -0.00384115 1.62112336 -0.00768229 2.45624751 -0.01163983 C3.78361185 -0.01034011 3.78361185 -0.01034011 5.13779163 -0.00901413 C6.08224339 -0.01198525 7.02669514 -0.01495637 7.99976665 -0.01801753 C11.17247762 -0.02670658 14.34515087 -0.02821296 17.51787281 -0.02970505 C19.7895462 -0.0343331 22.06121881 -0.03935775 24.33289051 -0.04475021 C30.51074658 -0.0578781 36.68859177 -0.06432003 42.86645961 -0.06876087 C46.72597669 -0.07169119 50.58549079 -0.07579594 54.44500637 -0.08026505 C65.13635864 -0.09237437 75.82770727 -0.10275605 86.51906586 -0.10614014 C87.54518776 -0.10646949 87.54518776 -0.10646949 88.5920394 -0.10680549 C89.27773579 -0.10702377 89.96343219 -0.10724204 90.66990727 -0.10746694 C92.05933329 -0.1079104 93.4487593 -0.10835696 94.83818531 -0.10880661 C95.52738514 -0.10902804 96.21658496 -0.10924947 96.92666963 -0.10947761 C108.08805664 -0.11342356 119.24937827 -0.13087166 130.41074004 -0.15416613 C141.87715256 -0.17790353 153.34351763 -0.19008532 164.8099578 -0.19150805 C171.24499519 -0.19255611 177.67994039 -0.19846413 184.11495495 -0.21632767 C190.16994832 -0.23280897 196.22478021 -0.23496344 202.27978802 -0.22618866 C204.49973197 -0.2254183 206.7196846 -0.22976079 208.93960667 -0.23964691 C211.97550518 -0.25237175 215.01083228 -0.24648637 218.04672718 -0.23606491 C218.92048313 -0.24412132 219.79423909 -0.25217772 220.69447249 -0.26047826 C228.93341289 -0.19455632 236.02573331 1.59744455 242.22221851 7.25642776 C243.02272633 7.96025589 243.82323414 8.66408401 244.64799976 9.38924026 C252.44298846 18.8401592 251.38709581 29.06014699 251.15971851 40.69392776 C251.13962598 42.48362136 251.12138007 44.27333669 251.10503101 46.06306839 C251.06124572 50.41973055 250.99237076 54.77533671 250.90971851 59.13142776 C251.93320896 59.12254532 252.95669941 59.11366287 254.01120472 59.10451126 C263.7050314 59.02306305 273.39878773 58.96328959 283.09288025 58.92417908 C288.07551099 58.90339527 293.05786323 58.8752479 298.04033375 58.82966995 C302.8579252 58.7858812 307.67525051 58.76222161 312.49302578 58.75191879 C314.32164983 58.74458623 316.150261 58.73026922 317.97877026 58.70850754 C333.02723027 58.53670072 345.20229716 60.38910405 357.90971851 69.13142776 C358.81721851 69.75017776 359.72471851 70.36892776 360.65971851 71.00642776 C365.96213357 76.01426421 369.34008908 81.73253061 372.54643726 88.24861526 C372.89114063 88.94391342 373.235844 89.63921158 373.59099293 90.35557938 C377.39520038 98.06043446 381.09113553 105.81700462 384.7642107 113.58504105 C385.9062075 115.99900614 387.05233101 118.41098126 388.19878101 120.82283401 C390.45699336 125.58255679 392.68722865 130.3549422 394.90971851 135.13142776 C395.28048512 135.92214676 395.65125172 136.71286575 396.03325367 137.52754593 C397.12860711 139.87214446 398.20858097 142.22326962 399.28471851 144.57674026 C399.767271 145.60285919 399.767271 145.60285919 400.25957203 146.64970779 C405.45026589 158.14130438 406.36511776 169.31964136 406.30815601 181.73689651 C406.31018279 183.31244414 406.31309921 184.88799085 406.31685352 186.46353531 C406.32124466 189.74379401 406.31494799 193.02380551 406.30083179 196.30403519 C406.28369897 200.48658524 406.29362714 204.66855928 406.31154919 208.85108852 C406.32243824 212.09666589 406.31891806 215.34210873 406.31116581 218.58769035 C406.30918013 220.1293056 406.31156497 221.6709335 406.31860447 223.21253395 C406.35978343 234.75541113 405.86919044 245.0504688 397.34331226 253.72517776 C388.83739265 261.48897017 379.54418117 262.21491405 368.53471851 262.69392776 C367.60788258 262.73711136 366.68104664 262.78029495 365.72612476 262.82478714 C363.45411557 262.93018963 361.18200926 263.03231382 358.90971851 263.13142776 C358.74149586 263.79626175 358.5732732 264.46109573 358.39995289 265.1460762 C355.27732859 277.12604909 349.03829124 286.1786695 338.39018726 292.66658401 C327.09189388 298.61944827 315.67702465 299.991062 303.22221851 296.56892776 C292.69513179 292.94984487 283.80059354 286.22595833 278.40581226 276.38924026 C276.0590266 271.45497298 274.82448605 267.62003295 273.90971851 262.13142776 C218.79971851 262.13142776 163.68971851 262.13142776 106.90971851 262.13142776 C106.24971851 265.10142776 105.58971851 268.07142776 104.90971851 271.13142776 C100.09376719 282.98191474 90.96491693 290.91762256 79.54253101 296.23299026 C69.24076541 299.94440077 55.88574505 299.61046009 45.90971851 295.13142776 C35.21822738 290.01525409 28.59542762 282.68628291 23.81987476 271.90486526 C22.75700192 268.66606818 22.30610739 265.51116451 21.90971851 262.13142776 C21.29564137 262.1419014 20.68156422 262.15237503 20.04887867 262.16316605 C17.21086855 262.20526986 14.3729245 262.23092399 11.53471851 262.25642776 C10.5692107 262.27318558 9.60370289 262.28994339 8.60893726 262.30720901 C-2.63526563 262.38267346 -11.65612671 261.08653417 -20.09028149 253.13142776 C-24.02963677 247.85764584 -27.20398336 242.62022227 -27.23072338 235.91853714 C-27.23643353 235.06050491 -27.24214367 234.20247269 -27.24802685 233.31843948 C-27.24914471 232.38016312 -27.25026257 231.44188675 -27.2514143 230.47517776 C-27.25886166 228.98945267 -27.25886166 228.98945267 -27.26645947 227.47371292 C-27.28108083 224.19294418 -27.28788199 220.91222375 -27.29340649 217.63142776 C-27.29915661 215.35603712 -27.30491436 213.0806465 -27.31067944 210.80525589 C-27.32118842 206.03376921 -27.32703221 201.26229939 -27.33051586 196.49080276 C-27.33600966 190.36704857 -27.36005712 184.24351571 -27.38848782 178.11983109 C-27.4070772 173.42048355 -27.41231775 168.72118983 -27.41385174 164.02180862 C-27.41688563 161.76349549 -27.42493877 159.50518347 -27.43803692 157.24690628 C-27.4550249 154.09365655 -27.45323521 150.94095423 -27.4467268 147.78767776 C-27.45594158 146.8494014 -27.46515636 145.91112503 -27.47465038 144.94441605 C-27.46908123 144.08638382 -27.46351208 143.22835159 -27.45777416 142.34431839 C-27.45924072 141.59879715 -27.46070728 140.85327591 -27.46221828 140.08516312 C-26.98070212 137.5558217 -26.12419004 136.67119592 -24.09028149 135.13142776 C-18.93250078 134.48670518 -18.93250078 134.48670518 -16.42644024 136.40510559 C-14.80690417 138.49755233 -14.71439626 139.50650847 -14.71174145 142.12758255 C-14.70353878 142.93776337 -14.69533611 143.74794418 -14.68688488 144.58267593 C-14.6930331 145.46791443 -14.69918133 146.35315292 -14.70551586 147.26521683 C-14.70014309 148.2005072 -14.69477032 149.13579758 -14.68923473 150.09943008 C-14.67944386 152.13248756 -14.67651652 154.16558689 -14.67959118 156.19866562 C-14.68406155 159.41870477 -14.67008939 162.63819206 -14.65119457 165.85817337 C-14.61436032 172.69924904 -14.60070077 179.54026753 -14.59028149 186.38142776 C-14.57820147 194.29523032 -14.55660907 202.20876541 -14.51027966 210.12244797 C-14.49672027 213.29044498 -14.50087937 216.4581031 -14.50568676 219.62611771 C-14.49634271 221.57743635 -14.48617302 223.52875128 -14.47504711 225.48006058 C-14.48119534 226.35720215 -14.48734356 227.23434372 -14.49367809 228.13806534 C-14.43388865 234.12570873 -13.64081084 239.16909419 -9.59028149 243.87361526 C-5.11102686 247.25638568 -2.08192902 248.24284823 3.45268726 248.44783401 C4.52583179 248.48972855 5.59897633 248.53162308 6.70464039 248.57478714 C7.82419117 248.61410355 8.94374195 248.65341995 10.09721851 248.69392776 C11.22837086 248.73711136 12.3595232 248.78029495 13.52495289 248.82478714 C16.31975205 248.93091875 19.11464013 249.03297161 21.90971851 249.13142776 C22.02073902 248.47118607 22.13175953 247.81094437 22.24614429 247.13069534 C23.53871026 240.00593087 25.82539121 235.09753937 29.90971851 229.13142776 C30.48721851 228.24455276 31.06471851 227.35767776 31.65971851 226.44392776 C40.355806 217.50628229 51.89922145 212.08738627 64.34721851 211.81892776 C77.69030088 211.97118285 88.3738004 216.45151122 97.74956226 226.00642776 C103.08997641 232.529071 106.90971851 240.70427691 106.90971851 249.13142776 C150.46971851 249.13142776 194.02971851 249.13142776 238.90971851 249.13142776 C238.84833115 209.69190654 238.84833115 209.69190654 238.74956226 170.25252151 C238.73349348 164.93334913 238.71762706 159.61417626 238.70219898 154.29500198 C238.70025504 153.62834947 238.6983111 152.96169696 238.69630826 152.27484286 C238.66530527 141.5185816 238.64831798 130.76234167 238.63652429 120.00604415 C238.62410411 108.96346257 238.59628659 97.92099643 238.55510545 86.87848473 C238.53246702 80.67760468 238.51680928 74.47688406 238.51783466 68.27595901 C238.51857985 62.43842838 238.50068533 56.60125049 238.46855068 50.76381111 C238.46003815 48.62248658 238.4583109 46.48112255 238.46391582 44.33978844 C238.47055666 41.41258272 238.45263248 38.48649906 238.42870045 35.55940628 C238.43646086 34.71502754 238.44422128 33.8706488 238.45221686 33.00068283 C238.36969064 27.28588612 237.28718327 22.82189092 233.90971851 18.13142776 C229.04805626 13.61652698 224.72732887 13.55780096 218.42767811 13.61676407 C217.0063205 13.60634578 217.0063205 13.60634578 215.55624861 13.59571701 C212.38485054 13.57743806 209.21419975 13.58771407 206.04277515 13.5979805 C203.76755685 13.59092251 201.49234325 13.582178 199.21713734 13.57187271 C193.03945686 13.54935581 186.86203231 13.55232395 180.68432641 13.56119418 C175.52761131 13.56630137 170.37094442 13.55901368 165.21423429 13.55172211 C152.35404735 13.53374335 139.49403818 13.54014123 126.63386273 13.55789191 C115.47118065 13.57258716 104.30876778 13.55796204 93.14612038 13.52912175 C81.67735888 13.49971181 70.20876788 13.4892681 58.73996156 13.49830395 C52.3038597 13.50323579 45.86796709 13.50100325 39.43189144 13.48051643 C33.38003404 13.46217511 27.3286773 13.46809978 21.27684689 13.49271584 C19.05606811 13.49772849 16.83525129 13.49422228 14.61450291 13.48156738 C11.58200609 13.46565411 8.55116132 13.48057254 5.51874256 13.50323868 C4.64052517 13.49140295 3.76230777 13.47956722 2.85747772 13.46737283 C-3.33596885 13.56138144 -6.40288887 15.05983677 -11.09028149 19.13142776 C-12.42646423 21.05580189 -12.42646423 21.05580189 -12.90278149 23.06892776 C-13.21989086 24.09179886 -13.21989086 24.09179886 -13.54340649 25.13533401 C-13.72387524 25.79404495 -13.90434399 26.45275589 -14.09028149 27.13142776 C-15.92811932 32.9692656 -15.92811932 32.9692656 -18.09028149 35.13142776 C-23.33563135 35.68944371 -23.33563135 35.68944371 -25.75434399 33.90095901 C-28.3676216 30.43951235 -27.6170604 26.24988109 -27.09028149 22.13142776 C-25.05201794 14.75485495 -20.46704208 7.96200564 -14.00043774 3.77986526 C-9.41580099 1.40644066 -5.1930609 0.00926901 0 0 Z M251.90971851 72.13142776 C251.90971851 130.54142776 251.90971851 188.95142776 251.90971851 249.13142776 C259.16971851 249.13142776 266.42971851 249.13142776 273.90971851 249.13142776 C274.61096851 246.98642776 275.31221851 244.84142776 276.03471851 242.63142776 C278.1309191 236.61955216 280.51272569 231.76990303 284.90971851 227.13142776 C285.54522633 226.44435745 286.18073414 225.75728714 286.83549976 225.04939651 C295.2429312 216.76492568 304.79192031 213.67077094 316.40971851 213.50642776 C328.57683731 213.69043183 337.98035621 217.1177561 346.75737476 225.75252151 C353.1695136 232.83962234 356.27575082 239.97451654 358.90971851 249.13142776 C362.24274855 249.24891527 365.57523688 249.31910101 368.90971851 249.38142776 C370.31157398 249.4317012 370.31157398 249.4317012 371.74174976 249.48299026 C378.00976079 249.57065475 382.70134837 248.76275521 387.90971851 245.13142776 C391.76146721 241.0821535 393.04258865 237.99203928 393.00737476 232.46345901 C393.00415211 231.57078323 393.00092945 230.67810745 392.99760914 229.75838089 C392.98923023 228.82961136 392.98085133 227.90084183 392.97221851 226.94392776 C392.96545094 225.53337112 392.96545094 225.53337112 392.95854664 224.09431839 C392.94676477 221.77329064 392.93031409 219.45239132 392.90971851 217.13142776 C392.11307789 217.10564651 391.31643726 217.07986526 390.49565601 217.05330276 C379.61053642 216.4706443 379.61053642 216.4706443 374.90971851 212.13142776 C371.50474085 208.27245308 371.44520283 204.51100691 371.63628101 199.56502151 C372.03162293 196.04647844 372.75247757 193.9628065 374.90971851 191.13142776 C379.02329393 188.06350941 383.11805017 186.94942487 388.18706226 186.52595901 C389.07514576 186.44837357 389.96322926 186.37078812 390.87822437 186.29085159 C391.54861744 186.23824173 392.21901051 186.18563187 392.90971851 186.13142776 C392.99829714 182.83993667 393.05062891 179.54875972 393.09721851 176.25642776 C393.12235523 175.33861526 393.14749195 174.42080276 393.17339039 173.47517776 C393.31600342 159.97447755 387.28052657 149.13284373 381.53471851 137.25642776 C379.9003755 133.85934697 378.26988771 130.4604253 376.64018726 127.06111526 C376.23492313 126.21750443 375.829659 125.37389359 375.41211414 124.50471878 C372.91510184 119.28996415 370.49579233 114.04771056 368.14799976 108.76424026 C367.57895612 107.4944882 367.00978681 106.22479244 366.44048023 104.95515823 C365.41549086 102.65607849 364.40423161 100.35080211 363.41020679 98.03816605 C358.63630404 87.40801152 351.86564878 78.72029908 340.90971851 74.13142776 C312.75834199 64.74763559 281.58387487 72.13142776 251.90971851 72.13142776 Z M384.90971851 199.13142776 C383.91971851 200.61642776 383.91971851 200.61642776 382.90971851 202.13142776 C383.89971851 203.61642776 383.89971851 203.61642776 384.90971851 205.13142776 C386.88718973 205.49440713 386.88718973 205.49440713 389.03471851 205.31892776 C390.31346851 205.25705276 391.59221851 205.19517776 392.90971851 205.13142776 C392.90971851 203.15142776 392.90971851 201.17142776 392.90971851 199.13142776 C391.63096851 199.06955276 390.35221851 199.00767776 389.03471851 198.94392776 C388.31542164 198.90912308 387.59612476 198.87431839 386.85503101 198.83845901 C385.89210133 198.98347855 385.89210133 198.98347855 384.90971851 199.13142776 Z M41.40971851 235.31892776 C35.89747477 242.16329707 33.17103554 249.92154595 33.58940601 258.72127151 C34.64507481 266.66453551 37.69486043 273.58426997 43.88237476 278.79158401 C51.68735489 284.39410061 59.56413605 287.04867788 69.17924976 285.76033401 C78.48318641 283.6173672 86.18359502 278.082425 91.25737476 269.97908401 C95.13725273 262.51136191 96.27915782 254.74942878 94.26128101 246.47127151 C90.93037008 237.26144514 84.75597482 230.38127873 75.90971851 226.13142776 C63.15910718 221.94465987 50.54122499 225.95155212 41.40971851 235.31892776 Z M291.90971851 237.13142776 C286.93620828 244.30613273 284.95412259 252.07021932 286.31987476 260.73299026 C288.7433117 270.10748284 293.47499587 276.81665477 301.66362476 281.94002151 C309.3122918 285.99714055 317.39533933 286.49345734 325.83549976 284.40877151 C335.23058087 280.88739817 340.59775693 275.06239463 344.90971851 266.13142776 C347.73192706 258.43800995 347.29564638 251.13518185 344.28471851 243.56892776 C339.97510597 234.74961351 334.01186653 229.68385739 324.90971851 226.13142776 C312.35250595 222.39302097 300.23287724 227.45450226 291.90971851 237.13142776 Z " fill="#000000" transform="translate(97.09028148651123,106.86857223510742)"/>
<path d="M0 0 C1.23188049 -0.00607773 2.46376099 -0.01215546 3.73297119 -0.01841736 C5.07036497 0.00049718 6.40774714 0.02024779 7.74511719 0.04077148 C9.12888136 0.04502742 10.5126527 0.04735081 11.89642334 0.0478363 C14.79504851 0.05399413 17.69289866 0.07664396 20.59130859 0.11230469 C24.284134 0.15740712 27.97625517 0.17232276 31.6693306 0.1760416 C34.52806385 0.18049991 37.38665305 0.19585816 40.24532318 0.21491814 C42.26193967 0.22797572 44.27858503 0.23630372 46.29522705 0.24452209 C63.45420024 0.46495576 63.45420024 0.46495576 70.47949219 5.16186523 C71.50623047 5.81348633 71.50623047 5.81348633 72.55371094 6.47827148 C79.7722989 13.31892291 83.49173304 22.88541819 87.54199219 31.78686523 C88.15234346 33.11651669 88.76318902 34.44594137 89.37451172 35.77514648 C90.60042469 38.44321002 91.82185402 41.11326962 93.04101562 43.78442383 C94.6418296 47.2838802 96.27872409 50.76547665 97.92480469 54.24389648 C98.83907069 56.19562409 99.75314657 58.14744076 100.66699219 60.09936523 C101.08948242 60.98132568 101.51197266 61.86328613 101.94726562 62.77197266 C105.62859098 70.7265442 105.62859098 70.7265442 104.79199219 75.59936523 C103.20438006 77.68706045 102.31886267 78.50296838 99.71331787 78.97968197 C98.90880188 78.98211186 98.10428589 78.98454176 97.27539062 78.98704529 C96.35004517 78.99694992 95.42469971 79.00685455 94.47131348 79.01705933 C93.4582312 79.01255768 92.44514893 79.00805603 91.40136719 79.00341797 C89.79859924 79.01371284 89.79859924 79.01371284 88.16345215 79.0242157 C84.62283127 79.04255398 81.08265048 79.03863639 77.54199219 79.03295898 C75.0872381 79.0375171 72.6324853 79.04282156 70.17773438 79.04884338 C65.0295697 79.05778811 59.88156004 79.05533544 54.73339844 79.04541016 C48.12526662 79.03391368 41.5176686 79.0541361 34.90960693 79.08332729 C29.83964623 79.10164274 24.76981457 79.1014062 19.6998291 79.09568977 C17.26289114 79.09553602 14.82594473 79.10162494 12.38903809 79.11398125 C8.98655352 79.12880271 5.5850697 79.11827889 2.18261719 79.10107422 C1.16953491 79.11074219 0.15645264 79.12041016 -0.8873291 79.13037109 C-1.81267456 79.12053696 -2.73802002 79.11070282 -3.69140625 79.10057068 C-4.49592224 79.10036139 -5.30043823 79.10015211 -6.1293335 79.09993649 C-8.20800781 78.59936523 -8.20800781 78.59936523 -9.96564484 76.75971985 C-11.70456043 73.73590603 -11.60357385 71.36734732 -11.62792969 67.890625 C-11.63639923 67.22507599 -11.64486877 66.55952698 -11.65359497 65.87380981 C-11.6769457 63.67926798 -11.67798768 61.48542803 -11.67675781 59.29077148 C-11.68386056 57.76146668 -11.69155972 56.23216454 -11.6998291 54.7028656 C-11.71326939 51.49926341 -11.71484479 48.29590764 -11.70898438 45.09228516 C-11.70308819 40.99179311 -11.73367676 36.89248506 -11.77410126 32.79222202 C-11.79998187 29.63426878 -11.80285543 26.47660051 -11.79920959 23.31855583 C-11.8009005 21.807098 -11.81054041 20.29562695 -11.82835388 18.78427315 C-11.85055413 16.66788174 -11.8408412 14.55388494 -11.82324219 12.4375 C-11.82529663 11.23489029 -11.82735107 10.03228058 -11.82946777 8.79322815 C-10.53019473 2.11588729 -6.43445825 -0.03018382 0 0 Z M1.79199219 13.59936523 C1.79199219 31.08936523 1.79199219 48.57936523 1.79199219 66.59936523 C30.50199219 66.59936523 59.21199219 66.59936523 88.79199219 66.59936523 C81.50275954 50.16839486 81.50275954 50.16839486 74.10449219 33.78686523 C73.8337085 33.18092529 73.5629248 32.57498535 73.28393555 31.95068359 C72.48093786 30.1555652 71.66203694 28.3675875 70.84277344 26.57983398 C70.14148315 25.03138794 70.14148315 25.03138794 69.42602539 23.45166016 C66.84163975 18.94047273 63.65644952 15.53475531 58.79199219 13.59936523 C56.08482492 13.31099108 56.08482492 13.31099108 53.10546875 13.37231445 C51.96458801 13.37246552 50.82370728 13.37261658 49.64825439 13.37277222 C47.80901398 13.38825607 47.80901398 13.38825607 45.93261719 13.40405273 C44.67310242 13.40688263 43.41358765 13.40971252 42.11590576 13.41262817 C38.77525317 13.42192402 35.4348755 13.4398794 32.09429932 13.46203613 C28.6823569 13.48253315 25.2703852 13.49174785 21.85839844 13.50170898 C15.16944183 13.52206491 8.4809658 13.56121519 1.79199219 13.59936523 Z " fill="#000000" transform="translate(369.2080078125,187.400634765625)"/>
<path d="M0 0 C0.9238298 -0.00990463 1.84765961 -0.01980927 2.79948425 -0.03001404 C3.80582916 -0.02551239 4.81217407 -0.02101074 5.84901428 -0.01637268 C6.91445969 -0.02323593 7.97990509 -0.03009918 9.07763672 -0.03717041 C12.60320829 -0.05548721 16.12833693 -0.0515938 19.65394592 -0.0459137 C22.10247951 -0.05047316 24.55101181 -0.05577802 26.99954224 -0.0617981 C32.13333838 -0.07073883 37.26697904 -0.06829503 42.40077209 -0.05836487 C48.98289597 -0.04687455 55.56448344 -0.06708343 62.14653683 -0.09628201 C67.20370906 -0.11461947 72.26075217 -0.11435639 77.3179493 -0.10864449 C79.74486099 -0.10849097 82.17178128 -0.11456023 84.59866142 -0.12693596 C87.99104939 -0.14179706 91.38243902 -0.13120368 94.77479553 -0.11402893 C95.77911621 -0.1236969 96.78343689 -0.13336487 97.81819153 -0.14332581 C102.14845891 -0.09737053 104.72100479 0.0135532 108.53921509 2.19247437 C110.37660217 4.38768005 110.37660217 4.38768005 110.37660217 8.01268005 C109.37660217 11.38768005 109.37660217 11.38768005 106.37660217 13.38768005 C104.26948643 13.64494896 104.26948643 13.64494896 101.790802 13.65510559 C100.85007339 13.66363556 99.90934479 13.67216553 98.94010925 13.68095398 C97.39479019 13.67959442 97.39479019 13.67959442 95.81825256 13.6782074 C94.73183975 13.68492462 93.64542694 13.69164185 92.52609253 13.69856262 C88.92543498 13.7176013 85.32496321 13.72146967 81.72425842 13.72361755 C79.22706016 13.73004093 76.72986267 13.73676894 74.23266602 13.74378967 C68.994581 13.75577681 63.75654331 13.75955448 58.51844788 13.75828552 C52.46474326 13.75708371 46.41139495 13.77819304 40.35778052 13.80977285 C34.53305552 13.8390755 28.70847165 13.84626171 22.88368034 13.84506607 C20.40569541 13.84743058 17.927708 13.85630155 15.44976997 13.8717308 C11.98765903 13.89127073 8.52647132 13.88559952 5.06434631 13.8735199 C4.03615784 13.88475891 3.00796936 13.89599792 1.94862366 13.90757751 C-4.9582155 13.84616963 -4.9582155 13.84616963 -8.29138184 11.54872131 C-9.62339783 9.38768005 -9.62339783 9.38768005 -9.62339783 6.32518005 C-7.95129862 1.41338862 -5.02988224 0.0152586 0 0 Z " fill="#000000" transform="translate(18.623397827148438,187.61231994628906)"/>
<path d="M0 0 C0.84120392 -0.00845947 1.68240784 -0.01691895 2.54910278 -0.02563477 C3.46867767 -0.01956207 4.38825256 -0.01348938 5.33569336 -0.00723267 C6.79215775 -0.0151181 6.79215775 -0.0151181 8.27804565 -0.02316284 C11.49403881 -0.03638825 14.70953874 -0.02761561 17.92553711 -0.01748657 C20.15608821 -0.01950657 22.38663867 -0.02241739 24.6171875 -0.02618408 C29.29457886 -0.03061089 33.9717985 -0.0241648 38.64916992 -0.01016235 C44.65189788 0.00692958 50.65422346 -0.00290968 56.65693665 -0.02087975 C61.26366216 -0.03170788 65.8702919 -0.02827568 70.47702026 -0.02049637 C72.69066414 -0.01849168 74.90431664 -0.02096301 77.11795044 -0.02793503 C80.2089957 -0.03553341 83.29938462 -0.02396761 86.39038086 -0.00723267 C87.30995575 -0.01330536 88.22953064 -0.01937805 89.17697144 -0.02563477 C90.01817535 -0.01717529 90.85937927 -0.00871582 91.72607422 0 C92.82223305 0.00169662 92.82223305 0.00169662 93.9405365 0.00342751 C96.44410693 0.49505621 97.33318203 1.36873565 98.86303711 3.38095093 C99.50713889 8.53376517 99.50713889 8.53376517 97.59815979 11.04464149 C95.46553192 12.68709063 94.39568267 12.75776988 91.72607422 12.76190186 C90.8848703 12.77036133 90.04366638 12.7788208 89.17697144 12.78753662 C88.25739655 12.78146393 87.33782166 12.77539124 86.39038086 12.76913452 C85.4194046 12.77439148 84.44842834 12.77964844 83.44802856 12.7850647 C80.23203541 12.7982901 77.01653548 12.78951747 73.80053711 12.77938843 C71.56998601 12.78140843 69.33943555 12.78431925 67.10888672 12.78808594 C62.43149535 12.79251274 57.75427572 12.78606666 53.0769043 12.77206421 C47.07417634 12.75497227 41.07185076 12.76481153 35.06913757 12.7827816 C30.46241206 12.79360973 25.85578232 12.79017753 21.24905396 12.78239822 C19.03541008 12.78039354 16.82175758 12.78286487 14.60812378 12.78983688 C11.51707852 12.79743527 8.4266896 12.78586947 5.33569336 12.76913452 C3.95633102 12.77824356 3.95633102 12.77824356 2.54910278 12.78753662 C1.28729691 12.77484741 1.28729691 12.77484741 0 12.76190186 C-0.73077255 12.76077078 -1.4615451 12.7596397 -2.21446228 12.75847435 C-4.71803271 12.26684565 -5.60710781 11.3931662 -7.13696289 9.38095093 C-7.78106467 4.22813669 -7.78106467 4.22813669 -5.87208557 1.71726036 C-3.7394577 0.07481123 -2.66960845 0.00413197 0 0 Z " fill="#000000" transform="translate(49.136962890625,156.61904907226563)"/>
<path d="M0 0 C1.07245972 -0.00004028 2.14491943 -0.00008057 3.24987793 -0.00012207 C5.51609155 0.00523658 7.78230448 0.0228338 10.04833984 0.05175781 C13.51848093 0.09359605 16.98668062 0.092828 20.45703125 0.0859375 C22.65886766 0.09643045 24.86069407 0.1093691 27.0625 0.125 C28.10112183 0.12520142 29.13974365 0.12540283 30.20983887 0.12561035 C31.17764282 0.14152222 32.14544678 0.15743408 33.14257812 0.17382812 C33.9921106 0.18224731 34.84164307 0.1906665 35.71691895 0.19934082 C38.58188272 0.68758904 39.96440738 1.56667404 42.03125 3.59375 C42.53125 7.09375 42.53125 7.09375 42.03125 10.59375 C39.19632308 13.3681669 37.14335287 13.97071667 33.234375 13.98193359 C32.2865918 13.99139008 31.33880859 14.00084656 30.36230469 14.0105896 C29.34555664 14.00451691 28.32880859 13.99844421 27.28125 13.9921875 C26.23098633 13.99505768 25.18072266 13.99792786 24.09863281 14.00088501 C21.8795518 14.00292521 19.66045279 13.99739845 17.44140625 13.98486328 C14.04386194 13.96880959 10.64750729 13.98471407 7.25 14.00390625 C5.09374737 14.00192381 2.93749549 13.99808012 0.78125 13.9921875 C-0.74387207 14.00129654 -0.74387207 14.00129654 -2.29980469 14.0105896 C-3.24758789 14.00113312 -4.19537109 13.99167664 -5.171875 13.98193359 C-6.41952637 13.97835342 -6.41952637 13.97835342 -7.69238281 13.97470093 C-10.51073272 13.50304898 -11.88235471 12.51618843 -13.96875 10.59375 C-14.96875 8.21875 -14.96875 8.21875 -14.96875 5.59375 C-11.67240343 -0.99404516 -6.53154592 -0.10310434 0 0 Z " fill="#000000" transform="translate(105.96875,216.40625)"/>
<path d="M0 0 C1.09699219 -0.00064453 2.19398438 -0.00128906 3.32421875 -0.00195312 C4.46503906 0.01802734 5.60585938 0.03800781 6.78125 0.05859375 C8.49248047 0.04795898 8.49248047 0.04795898 10.23828125 0.03710938 C19.93984423 0.11121062 19.93984423 0.11121062 23.28125 3.49609375 C24.02142234 9.41747251 24.02142234 9.41747251 22.11889648 12.18994141 C19.52229575 14.03553911 17.60742125 13.88430966 14.44140625 13.89453125 C13.29607422 13.89839844 12.15074219 13.90226562 10.97070312 13.90625 C9.77380859 13.89464844 8.57691406 13.88304687 7.34375 13.87109375 C6.15072266 13.88269531 4.95769531 13.89429688 3.72851562 13.90625 C2.58189453 13.90238281 1.43527344 13.89851563 0.25390625 13.89453125 C-0.79531006 13.89114746 -1.84452637 13.88776367 -2.92553711 13.88427734 C-6.08717009 13.44489299 -7.47496649 12.74086848 -9.71875 10.49609375 C-10.21875 7.55859375 -10.21875 7.55859375 -9.71875 4.49609375 C-6.75825971 0.67500586 -4.76589234 -0.00882289 0 0 Z " fill="#000000" transform="translate(369.71875,274.50390625)"/>
</svg>
