<?xml version="1.0" encoding="UTF-8"?>
<svg version="1.1" xmlns="http://www.w3.org/2000/svg" width="512" height="512">
<path d="M0 0 C0.89236359 0.35285065 1.78472717 0.70570129 2.70413208 1.06924438 C5.62452953 2.22937408 8.53414296 3.41416362 11.44384766 4.60083008 C13.48219767 5.41949205 15.5209931 6.2370458 17.56021118 7.05354309 C21.81943708 8.76341738 26.07351343 10.48536496 30.32421875 12.21630859 C35.76964055 14.43281243 41.22608724 16.62052056 46.68657494 18.79960155 C50.89281825 20.48143643 55.09325804 22.17737862 59.29204178 23.87774086 C61.30220625 24.69001974 63.31406074 25.49812934 65.32761765 26.3019619 C68.13845954 27.42675985 70.94102315 28.57010147 73.7421875 29.71875 C74.57236389 30.04675095 75.40254028 30.37475189 76.25787354 30.71269226 C80.8081362 32.60497676 84.14089092 34.12441236 86.48291016 38.68286133 C87.03480383 42.09428577 87.01917341 45.44507166 86.98461914 48.89477539 C86.99272362 50.43498856 86.99272362 50.43498856 87.00099182 52.00631714 C87.01350438 55.40399969 86.99695669 58.80083822 86.97900391 62.19848633 C86.97915898 64.57200159 86.98064929 66.94551711 86.9834137 69.31903076 C86.98479931 74.30240024 86.97222319 79.28548253 86.94946289 84.26879883 C86.92126363 90.61312705 86.92376294 96.95697143 86.936553 103.30133438 C86.94356279 108.21059184 86.9356578 113.11974051 86.92329597 118.02898407 C86.91881959 120.36502411 86.91841081 122.70107601 86.92236137 125.037117 C86.95195815 157.97734944 79.55733514 184.48385867 57.10107422 209.10571289 C55.48291016 210.68286133 55.48291016 210.68286133 52.91902161 212.05628967 C49.01471125 216.26584705 49.81334026 220.74675036 49.88696289 226.28515625 C49.88087509 228.06388123 49.88087509 228.06388123 49.87466431 229.87854004 C49.86769655 233.12914853 49.88254008 236.37882673 49.90573764 239.62933135 C49.92377913 243.03778912 49.91043796 246.44610216 49.89942932 249.85456848 C49.87876381 257.79004611 49.89435234 265.72524387 49.91490173 273.66070557 C49.94003597 283.743086 49.95280506 293.82530703 49.92494541 303.90769273 C49.9166533 307.2967839 49.917217 310.68540734 49.9382 314.07445335 C49.9594615 317.86104555 49.95677323 321.64696455 49.94946289 325.43359375 C49.96234848 326.54509293 49.97523407 327.6565921 49.98851013 328.80177307 C49.92390844 338.8637788 46.63968286 347.44995274 39.48291016 354.68286133 C32.52999061 359.78997324 25.74885203 362.92905819 17.02815723 362.94013023 C15.74110506 362.94657913 14.45405288 362.95302802 13.12799913 362.95967233 C11.70689913 362.95673029 10.28579951 362.95359488 8.86470032 362.95028687 C7.34943277 362.95402439 5.83416715 362.95862632 4.31890458 362.96401751 C0.15789613 362.97625051 -4.00303194 362.97598668 -8.16405427 362.97362876 C-12.65296631 362.97322066 -17.14185255 362.98425913 -21.63075256 362.9937439 C-30.42481253 363.01035705 -39.21884569 363.01585361 -48.01292004 363.01696865 C-55.1622866 363.01791908 -62.31164431 363.0220291 -69.46100807 363.0283699 C-89.73405183 363.04598399 -110.00707441 363.05520863 -130.28012588 363.05370896 C-131.37305787 363.05362904 -132.46598987 363.05354913 -133.59204102 363.0534668 C-134.68630883 363.05338504 -135.78057664 363.05330327 -136.90800408 363.05321904 C-154.63791001 363.05240632 -172.36773094 363.07153986 -190.09761228 363.09974353 C-208.30575122 363.12847921 -226.51384872 363.14228341 -244.72201091 363.14055598 C-254.94316084 363.13989226 -265.16422169 363.14537636 -275.38535118 363.16691208 C-284.08898601 363.18513296 -292.79249139 363.18946382 -301.49613705 363.17589323 C-305.93499119 363.16936788 -310.37359707 363.16923064 -314.81242752 363.18659973 C-318.88076186 363.20235497 -322.9486516 363.19944202 -327.01697526 363.18203147 C-328.48400949 363.17896692 -329.9510771 363.18257335 -331.41807195 363.19375162 C-344.29664805 363.28533763 -353.9056111 361.27776537 -363.34912109 352.19458008 C-368.53898658 346.181817 -371.63289856 339.16764751 -371.65131092 331.2077322 C-371.65576876 330.31131903 -371.66022661 329.41490586 -371.66481954 328.49132866 C-371.66463518 327.51050963 -371.66445081 326.5296906 -371.66426086 325.51914978 C-371.66793755 324.47402035 -371.67161424 323.42889092 -371.67540234 322.3520909 C-371.68644408 318.83856347 -371.69028389 315.32506562 -371.6940918 311.81152344 C-371.70035612 309.29679266 -371.70700289 306.78206281 -371.71400452 304.26733398 C-371.73323488 296.71233996 -371.74383366 289.15735113 -371.75273231 281.60233888 C-371.75711828 278.04185848 -371.76248434 274.48137957 -371.76772118 270.92090034 C-371.78473278 259.08005425 -371.79922563 247.23920906 -371.80646992 235.39835262 C-371.80837972 232.32660356 -371.81030006 229.2548545 -371.81225586 226.18310547 C-371.8127396 225.41966489 -371.81322334 224.65622432 -371.81372174 223.86964918 C-371.82201714 211.51005644 -371.84734604 199.15056063 -371.87983654 186.79101019 C-371.91294405 174.09287916 -371.93092206 161.39479732 -371.93411416 148.69662291 C-371.93627597 141.57068181 -371.94497615 134.44488202 -371.97057533 127.31898308 C-371.99461341 120.61225373 -371.9980849 113.90582211 -371.98781395 107.19904327 C-371.98731872 104.74127673 -371.99363514 102.28349764 -372.00737 99.82576942 C-372.02511187 96.46202984 -372.01797051 93.09919938 -372.00483704 89.73545837 C-372.01580628 88.7702544 -372.02677553 87.80505042 -372.03807718 86.81059784 C-371.94259502 76.63282095 -368.73166029 67.04269159 -361.51708984 59.68286133 C-349.93787515 49.55392601 -335.34824514 50.24405502 -320.87475586 50.29467773 C-318.91067718 50.29060616 -316.94660079 50.28526101 -314.98252869 50.27874756 C-309.68136193 50.26514416 -304.38037153 50.27034197 -299.07920194 50.27988482 C-293.52154157 50.28751018 -287.96389573 50.28042853 -282.40623474 50.27572632 C-273.08321433 50.27028032 -263.7602654 50.27743334 -254.43725586 50.29174805 C-243.6591085 50.30810586 -232.88113113 50.30275869 -222.10298783 50.28626883 C-212.83733685 50.27266099 -203.57173706 50.27072986 -194.30607933 50.27858484 C-188.77673836 50.28326089 -183.24747738 50.28388732 -177.71814156 50.27397537 C-172.52647861 50.26531707 -167.33503554 50.27130685 -162.14339638 50.28865814 C-160.23783483 50.29262761 -158.3322548 50.29148109 -156.42670059 50.28487015 C-153.82767856 50.27668363 -151.22936324 50.28694067 -148.63038635 50.3019104 C-147.87494634 50.29521824 -147.11950632 50.28852607 -146.34117419 50.28163111 C-141.88457468 50.3314929 -139.07172994 50.95920851 -135.51708984 53.68286133 C-132.95109028 56.7620608 -132.50863 58.20065012 -132.57958984 62.24536133 C-133.59653068 65.97414441 -134.4827744 67.36250246 -137.51708984 69.68286133 C-141.22259987 70.91803134 -144.64753366 70.82289909 -148.50617981 70.81416321 C-149.32938727 70.81627892 -150.15259472 70.81839464 -151.00074786 70.82057446 C-153.76898512 70.82658291 -156.53717691 70.82557371 -159.30541992 70.82470703 C-161.28625059 70.82773796 -163.26708055 70.83125923 -165.24790955 70.8352356 C-169.51876211 70.84312996 -173.78960629 70.84827153 -178.06046486 70.85152626 C-184.81277149 70.8574306 -191.56502526 70.87396537 -198.31730652 70.89286804 C-200.62786957 70.89920556 -202.93843266 70.90553119 -205.24899578 70.91184521 C-206.40619952 70.91501102 -207.56340325 70.91817683 -208.75567377 70.92143857 C-224.47895217 70.96353689 -240.20220609 70.99649539 -255.92553711 71.00878906 C-266.52706107 71.01716337 -277.12845435 71.03963078 -287.72991294 71.07814473 C-293.34160437 71.09792664 -298.95310034 71.11030286 -304.56482887 71.10531044 C-309.84344514 71.10067162 -315.12169078 71.11442769 -320.40023232 71.14232254 C-322.33760868 71.14924719 -324.27502326 71.14934724 -326.21239853 71.14212227 C-328.85772437 71.1332535 -331.50182283 71.14889527 -334.14704895 71.17060852 C-334.9134971 71.16216598 -335.67994525 71.15372345 -336.4696191 71.14502507 C-341.63217129 71.22336575 -344.67687999 72.21579194 -348.51708984 75.68286133 C-352.16551184 81.66502875 -352.05529162 87.7483772 -352.20458984 94.62036133 C-352.25583008 96.21847656 -352.25583008 96.21847656 -352.30810547 97.84887695 C-352.3900721 100.46009978 -352.45938871 103.07100854 -352.51708984 105.68286133 C-351.42487562 105.67825236 -350.3326614 105.6736434 -349.20734978 105.66889477 C-322.6425203 105.55794177 -296.07772084 105.47575389 -269.51270866 105.42380047 C-256.66610356 105.39800896 -243.81965145 105.36284006 -230.97314453 105.30566406 C-219.77730875 105.25585843 -208.58158375 105.22357721 -197.38564026 105.21241885 C-191.45635461 105.20589537 -185.52738591 105.19054311 -179.59820175 105.15421104 C-174.01843079 105.12029678 -168.43910763 105.10979931 -162.85924339 105.11732292 C-160.810566 105.11594635 -158.76187377 105.10598691 -156.71328545 105.08683395 C-153.91661277 105.06196746 -151.12163222 105.0679328 -148.32492065 105.08158875 C-147.51362572 105.06702454 -146.70233078 105.05246033 -145.86645114 105.03745478 C-141.83480418 105.09069197 -139.25840375 105.47558791 -136.03300667 108.00169086 C-132.91077514 111.32900077 -132.43616729 113.15119831 -132.51708984 117.68286133 C-134.10547919 121.25673735 -135.23343342 122.49375705 -138.51708984 124.68286133 C-141.37817325 124.87258128 -144.14102798 124.94360015 -147.00212097 124.92337036 C-147.87856445 124.92507921 -148.75500793 124.92678806 -149.6580103 124.92854869 C-152.60615479 124.93185307 -155.55407361 124.9208243 -158.50219727 124.90991211 C-160.61098729 124.9093482 -162.71977771 124.90966416 -164.8285675 124.91079712 C-170.56377833 124.91137242 -176.29890599 124.89958936 -182.03409743 124.8856492 C-188.02389212 124.87317144 -194.01368858 124.87197368 -200.00349426 124.86959839 C-211.35068872 124.86337492 -222.69784478 124.84695238 -234.04502231 124.82689941 C-246.96140668 124.80456736 -259.87779286 124.79355376 -272.79419172 124.78350854 C-299.36851241 124.7625869 -325.94279898 124.7273941 -352.51708984 124.68286133 C-352.45658527 151.56875346 -352.37910651 178.45455019 -352.28137493 205.34033394 C-352.23639381 217.82364178 -352.19698445 230.30692094 -352.1706543 242.7902832 C-352.14769303 253.66974581 -352.11431589 264.54911784 -352.06838828 275.42850864 C-352.04443092 281.18999446 -352.02571858 286.95139044 -352.01947594 292.71292496 C-352.01343652 298.13509379 -351.99347782 303.55703266 -351.96281433 308.97911644 C-351.95401581 310.9697008 -351.95031527 312.96031518 -351.95208168 314.9509182 C-351.95373188 317.66848322 -351.93705677 320.3853451 -351.91581726 323.10281372 C-351.92066484 323.89076297 -351.92551241 324.67871222 -351.93050689 325.49053872 C-351.86814009 330.32480446 -350.89853523 333.50345302 -348.51708984 337.68286133 C-348.51708984 338.34286133 -348.51708984 339.00286133 -348.51708984 339.68286133 C-347.73333984 339.99223633 -346.94958984 340.30161133 -346.14208984 340.62036133 C-343.51708984 341.68286133 -343.51708984 341.68286133 -341.51708984 342.68286133 C-339.56329827 342.78042764 -337.60610813 342.81205737 -335.64988327 342.81428909 C-333.76320171 342.82005081 -333.76320171 342.82005081 -331.83840537 342.82592893 C-330.42960336 342.82514859 -329.02080141 342.82426978 -327.61199951 342.82330322 C-326.12549584 342.82588536 -324.63899286 342.82889809 -323.15249085 342.83230662 C-319.05262162 342.84039781 -314.95276987 342.84216737 -310.85289359 342.84290409 C-306.43695335 342.84475099 -302.02102226 342.85229651 -297.60508728 342.85903931 C-287.94188914 342.8726385 -278.27869513 342.8786499 -268.61548901 342.88304996 C-262.58474578 342.88580988 -256.55400416 342.89004679 -250.52326202 342.89455414 C-233.83485388 342.9067492 -217.14644702 342.91704783 -200.45803452 342.92042923 C-199.38930647 342.9206488 -198.32057842 342.92086836 -197.21946467 342.92109458 C-195.61247377 342.921422 -195.61247377 342.921422 -193.97301841 342.92175603 C-191.80199925 342.9221995 -189.63098009 342.92264606 -187.45996094 342.9230957 C-186.38305387 342.92331713 -185.3061468 342.92353856 -184.19660619 342.9237667 C-166.74437927 342.92771523 -149.2921941 342.94516987 -131.83998331 342.96845523 C-113.93371286 342.99215407 -96.02746336 343.00463042 -78.12117696 343.00579715 C-68.06278414 343.00671477 -58.00444568 343.01248891 -47.94606781 343.03061676 C-39.38128424 343.04599801 -30.81657183 343.05114994 -22.25177708 343.04287866 C-17.88044105 343.03896504 -13.50924841 343.03993629 -9.13792992 343.053936 C-5.13699732 343.06663251 -1.1363165 343.06551502 2.86461553 343.05334529 C4.31283835 343.05138088 5.76107874 343.05450094 7.20927683 343.06318966 C9.17693513 343.0742485 11.1446762 343.06502238 13.11233902 343.05479813 C14.75224379 343.05569376 14.75224379 343.05569376 16.42527795 343.05660748 C20.87039264 342.513264 24.274412 341.01637653 27.29541016 337.68286133 C29.16372022 334.53623386 29.61087387 331.95687257 29.64112854 328.37385559 C29.65581177 327.05506157 29.65581177 327.05506157 29.67079163 325.70962524 C29.67654709 324.74793427 29.68230255 323.78624329 29.68823242 322.79541016 C29.69813202 321.78060074 29.70803162 320.76579132 29.7182312 319.7202301 C29.74986224 316.36014147 29.77461006 313.00003868 29.79931641 309.63989258 C29.81988454 307.31247079 29.84088097 304.98505276 29.86228943 302.65763855 C29.91752458 296.5272627 29.96692754 290.39685305 30.01513672 284.26641846 C30.06534117 278.01262397 30.12103275 271.75887866 30.17626953 265.50512695 C30.28386878 253.2310804 30.38530987 240.95699118 30.48291016 228.68286133 C26.55265363 230.97297154 22.6241174 233.26599761 18.69702148 235.56152344 C17.36608894 236.33898301 16.03472203 237.11569955 14.70288086 237.89160156 C12.76767648 239.01919522 10.83388137 240.14915372 8.90087891 241.28051758 C8.26699942 241.65103619 7.63311993 242.02155479 6.98003197 242.40330124 C2.15850646 245.24010535 -2.53276903 248.2466212 -7.17098999 251.37579346 C-11.38120389 253.72140347 -14.91005383 253.93274093 -19.51708984 252.68286133 C-24.24553418 250.49451513 -28.5394538 247.76870665 -32.89208984 244.93286133 C-34.12950637 244.14942254 -35.36837596 243.3682744 -36.60864258 242.58935547 C-39.08852455 241.02981206 -41.56187528 239.46064124 -44.03125 237.88452148 C-47.9898799 235.36936389 -52.01753706 232.97825188 -56.06054688 230.6015625 C-83.91884854 214.22083792 -103.246507 194.51390449 -112.72802734 163.10083008 C-114.78567324 154.18775998 -115.81617369 145.53453131 -115.80761719 136.39404297 C-115.81433441 135.33718292 -115.82105164 134.28032288 -115.82797241 133.19143677 C-115.84677833 129.74191435 -115.85086613 126.29258786 -115.85302734 122.84301758 C-115.85946169 120.42833885 -115.86619052 118.01366089 -115.87319946 115.59898376 C-115.88512439 110.56011138 -115.88888465 105.52130736 -115.88769531 100.48242188 C-115.88749108 94.0238611 -115.91492191 87.56573519 -115.94923973 81.10727787 C-115.97144825 76.13077266 -115.9755349 71.15437372 -115.97447586 66.17782402 C-115.97683598 63.79556196 -115.9856825 61.41329714 -116.00114059 59.03108406 C-116.02070023 55.70904692 -116.01500405 52.38797002 -116.00292969 49.06591797 C-116.0141687 48.08351639 -116.02540771 47.10111481 -116.0369873 46.08894348 C-116.00003023 42.09465086 -115.86941117 39.37160858 -114.03302002 35.78167725 C-110.56545021 32.88899335 -106.95342689 31.3690975 -102.77636719 29.71875 C-101.89451752 29.35713776 -101.01266785 28.99552551 -100.10409546 28.62295532 C-97.19287082 27.43402719 -94.2735432 26.26672994 -91.35302734 25.10083008 C-89.31972479 24.27920143 -87.28673971 23.45678669 -85.25405884 22.63362122 C-80.99253435 20.91190519 -76.72683241 19.20109041 -72.45800781 17.49755859 C-67.00201028 15.31905774 -61.55808666 13.11205084 -56.11708641 10.89640331 C-51.91999261 9.19140613 -47.71644658 7.5028111 -43.51085281 5.81890297 C-41.50181042 5.0120118 -39.49486902 4.19986808 -37.49015427 3.38228416 C-34.67790787 2.23799972 -31.85758806 1.11640758 -29.03417969 0 C-27.80713318 -0.50718315 -27.80713318 -0.50718315 -26.55529785 -1.02461243 C-16.99941225 -4.74030479 -9.33012133 -3.85648001 0 0 Z M-24.31494141 19.62036133 C-25.48624603 20.08853271 -25.48624603 20.08853271 -26.68121338 20.56616211 C-29.25938353 21.59854407 -31.83350841 22.64063975 -34.40771484 23.68286133 C-36.19537637 24.4009103 -37.98328262 25.11835026 -39.77142334 25.83520508 C-44.47564991 27.72300282 -49.17650387 29.61906164 -53.87670898 31.5168457 C-58.67410164 33.45217363 -63.47462994 35.37968998 -68.27490234 37.30786133 C-77.6920545 41.0918787 -87.10566306 44.88462862 -96.51708984 48.68286133 C-96.58700174 60.64529909 -96.6401084 72.6076872 -96.67252636 84.57028866 C-96.68809555 90.12668581 -96.70917152 95.68294184 -96.7434082 101.23925781 C-96.77631675 106.61446558 -96.79400838 111.98953872 -96.80172157 117.36483955 C-96.80720913 119.40225909 -96.81792251 121.43967235 -96.83428001 123.47703362 C-97.04830028 151.27217152 -91.83586269 173.66000897 -72.65380859 194.66333008 C-64.0481802 203.23142344 -54.00191848 209.20606391 -43.57958984 215.24536133 C-41.48241944 216.46901403 -39.38662007 217.69495963 -37.2918396 218.92269897 C-35.93499623 219.71717564 -34.57663851 220.50907224 -33.21670532 221.29824829 C-28.27613318 224.18040795 -23.52495589 227.28620516 -18.84692383 230.58105469 C-15.82834047 232.00857923 -14.65450637 231.76416801 -11.51708984 230.68286133 C-9.40127468 229.61099258 -7.3259708 228.45761624 -5.28271484 227.25317383 C-4.69181564 226.90706055 -4.10091644 226.56094727 -3.49211121 226.2043457 C-1.57891382 225.0801866 0.32737742 223.94495758 2.23291016 222.80786133 C3.55051596 222.02641291 4.86814301 221.24500031 6.18579102 220.46362305 C9.96086318 218.21880569 13.72379463 215.95427275 17.48291016 213.68286133 C18.41570801 213.12083008 19.34850586 212.55879883 20.30957031 211.97973633 C42.88779177 198.26040928 59.13547603 180.44879635 65.75634766 154.25317383 C67.19977945 147.16018102 67.62693626 140.35852965 67.59643555 133.14575195 C67.59665459 131.76874619 67.59665459 131.76874619 67.59687805 130.36392212 C67.59618618 127.35562709 67.58842799 124.34739542 67.58056641 121.33911133 C67.57869965 119.24304234 67.57727696 117.14697291 67.57627869 115.05090332 C67.57247382 109.55349508 67.56266099 104.05611356 67.55157471 98.55871582 C67.54131681 92.94124717 67.53677171 87.32377416 67.53173828 81.70629883 C67.5210368 70.69847463 67.50398491 59.69067021 67.48291016 48.68286133 C57.12454427 44.50246605 46.76322199 40.32949562 36.39804459 36.16601562 C31.58533296 34.23257613 26.77368287 32.29658029 21.96435547 30.35473633 C17.32430709 28.48135074 12.68160689 26.61468857 8.03697968 24.75268555 C6.26417396 24.0406037 4.49234231 23.32609188 2.72150421 22.60913086 C0.24378044 21.60645152 -2.23724511 20.61241597 -4.71923828 19.62036133 C-5.45291626 19.3211377 -6.18659424 19.02191406 -6.94250488 18.71362305 C-13.7413065 16.01613752 -17.77466578 16.9529717 -24.31494141 19.62036133 Z " fill="#000000" transform="translate(398.51708984375,67.317138671875)"/>
<path d="M0 0 C3.7831595 2.71400573 4.84616341 4.21799735 5.75 8.8125 C5.50453647 12.32387702 4.45837164 14.02560454 2.10668945 16.59985352 C1.47034576 17.2965213 0.83400208 17.99318909 0.17837524 18.71096802 C-3.96887286 23.06888733 -8.19821894 27.3413017 -12.45703125 31.58984375 C-13.45129212 32.58477978 -14.44540463 33.57986409 -15.43937683 34.5750885 C-17.5060628 36.64323732 -19.57451793 38.70959516 -21.64428711 40.7746582 C-24.29853564 43.42316516 -26.94820835 46.0761978 -29.59660816 48.73055172 C-31.64079149 50.77834081 -33.68734072 52.823752 -35.73462486 54.86844063 C-36.71339005 55.84653891 -37.69141341 56.8253801 -38.66868019 57.80497551 C-40.02776205 59.16658894 -41.390382 60.52466812 -42.75317383 61.88256836 C-43.52703934 62.65563828 -44.30090485 63.42870819 -45.09822083 64.22520447 C-48.42729034 67.33198877 -51.21278379 67.46861583 -55.63305664 67.40667725 C-59.87011383 66.6786857 -62.13250115 63.99981632 -64.96875 60.9453125 C-65.57513306 60.32856659 -66.18151611 59.71182068 -66.80627441 59.0763855 C-68.72635504 57.11278512 -70.61252285 55.1199063 -72.5 53.125 C-73.79742988 51.79097262 -75.0968912 50.45891774 -76.3984375 49.12890625 C-86.865486 38.36755905 -86.865486 38.36755905 -87.375 33.1875 C-87.31327317 29.7986973 -86.98866791 28.98300186 -85 26 C-81.92118104 23.94745403 -79.82041136 23.12836787 -76.08984375 23.40625 C-71.76727981 24.63434293 -69.06275959 27.85910879 -66 31 C-64.94432501 32.04720519 -63.88690922 33.09265727 -62.828125 34.13671875 C-59.86357205 37.06997437 -56.9269011 40.02919538 -54 43 C-48.561334 38.4759579 -43.56811822 33.65837952 -38.6171875 28.609375 C-37.02242382 26.99711051 -35.42736297 25.38513992 -33.83203125 23.7734375 C-31.34254592 21.25290137 -28.8554766 18.73011457 -26.37353516 16.20214844 C-23.96147939 13.74780925 -21.54011388 11.3029768 -19.1171875 8.859375 C-18.37749725 8.10106384 -17.63780701 7.34275269 -16.8757019 6.5614624 C-16.17792633 5.86023254 -15.48015076 5.15900269 -14.76123047 4.43652344 C-14.15391083 3.81952576 -13.54659119 3.20252808 -12.92086792 2.5668335 C-8.73716343 -0.84577404 -5.14847912 -1.60889972 0 0 Z " fill="#000000" transform="translate(425,151)"/>
<path d="M0 0 C0.77254623 -0.0065712 1.54509247 -0.0131424 2.34104919 -0.01991272 C4.90339246 -0.03965944 7.46567708 -0.05131135 10.02807617 -0.0612793 C10.90260626 -0.06535482 11.77713634 -0.06943035 12.67816734 -0.07362938 C17.30692688 -0.09449601 21.93565671 -0.10879513 26.56445312 -0.11816406 C31.34631134 -0.12922965 36.12770435 -0.1636294 40.90939808 -0.20333576 C44.58543261 -0.22947729 48.26135589 -0.2378537 51.9374752 -0.24144554 C53.70013254 -0.24631791 55.4627847 -0.25795043 57.22535133 -0.27648354 C59.69357819 -0.30082315 62.16059621 -0.29991985 64.62890625 -0.29296875 C65.71931717 -0.31218384 65.71931717 -0.31218384 66.83175659 -0.33178711 C71.66490667 -0.28222316 74.11770496 0.74422046 77.50854492 4.17700195 C79.08752545 7.33496302 79.32782663 10.78370831 78.50854492 14.17700195 C75.75747712 17.69083653 74.28348085 19.04332473 69.82788086 19.81192017 C68.3831902 19.84145704 66.93777769 19.84371149 65.49291992 19.82397461 C64.70042847 19.83273621 63.90793701 19.8414978 63.09143066 19.8505249 C60.47990668 19.87247606 57.87008518 19.85798251 55.25854492 19.84106445 C53.43920569 19.84443385 51.61986865 19.84928749 49.80053711 19.8555603 C45.99074842 19.86292579 42.18154656 19.85223679 38.37182617 19.82885742 C33.49226167 19.80036956 28.61407218 19.8167753 23.73455811 19.84671974 C19.97865468 19.86480163 16.22307639 19.85903066 12.46716309 19.84608078 C10.66825192 19.84274922 8.86931108 19.84682508 7.07043457 19.85847855 C4.55421962 19.87120242 2.04022013 19.85179146 -0.47583008 19.82397461 C-1.21675903 19.83409576 -1.95768799 19.84421692 -2.72106934 19.85464478 C-6.6769344 19.77376664 -8.3438707 19.29717203 -11.453125 16.76547241 C-14.00573343 13.52392111 -14.17172307 12.06485859 -13.92504883 8.1105957 C-13.24340114 5.07081549 -11.6891322 3.31004152 -9.49145508 1.17700195 C-6.46413285 -0.33665916 -3.32193657 0.01218582 0 0 Z " fill="#000000" transform="translate(95.491455078125,355.822998046875)"/>
</svg>
