<?xml version="1.0" encoding="UTF-8"?>
<svg version="1.1" xmlns="http://www.w3.org/2000/svg" width="512" height="512">
<path d="M0 0 C1.10867432 0.3697998 2.21734863 0.73959961 3.35961914 1.12060547 C12.26783234 4.30903324 19.86585291 8.27156642 24.6875 16.6875 C27.74001559 23.58197487 28.39724765 30.6118889 26.6875 37.9375 C27.38875 38.15664062 28.09 38.37578125 28.8125 38.6015625 C37.90932061 41.64207591 44.93464752 45.38236553 49.6875 53.9375 C53.05613423 64.04340269 49.24384849 73.86824905 45.98046875 83.4921875 C45.4931569 84.96623054 45.00712114 86.44069601 44.52229309 87.91555786 C43.50910605 90.98650964 42.48536756 94.05364821 41.45288086 97.11816406 C40.13279768 101.03694716 38.83255284 104.96194678 37.53922558 108.88963127 C36.53815658 111.92660329 35.53035105 114.9613024 34.52013588 117.99524307 C34.03851269 119.44206188 33.55811745 120.88929009 33.07900047 122.33694077 C32.40813083 124.35813881 31.72913014 126.37641587 31.04760742 128.39404297 C30.66344162 129.54000946 30.27927582 130.68597595 29.88346863 131.8666687 C26.99475871 139.28387065 26.99475871 139.28387065 23.6875 140.9375 C16.67150984 141.50330566 16.67150984 141.50330566 13.1875 139.5 C10.4135001 134.7610835 11.19245867 129.85430936 12.51541138 124.73181152 C13.49944847 121.62727261 14.52716628 118.54386092 15.60717964 115.47141266 C16.32972147 113.4152331 17.03485584 111.35376566 17.73606873 109.29022217 C19.22549131 104.91734309 20.73665369 100.55214633 22.25 96.1875 C24.0080351 91.11217869 25.75693833 86.03398769 27.4865551 80.94890594 C28.18072464 78.92181705 28.88944093 76.90021782 29.59901428 74.878479 C30.0195256 73.64659851 30.44003693 72.41471802 30.87329102 71.14550781 C31.43621605 69.52409882 31.43621605 69.52409882 32.01051331 67.86993408 C32.73023494 64.75238944 32.66108052 62.96244614 31.6875 59.9375 C28.52539848 56.5321599 25.13972994 56.49792055 20.6875 55.9375 C20.41799782 56.71508415 20.41799782 56.71508415 20.14305115 57.50837708 C12.17698044 80.49142295 4.20685887 103.47298465 -3.8125 126.4375 C-9.16466081 141.76432937 -14.49495959 157.09862556 -19.8125 172.4375 C-25.43025276 188.64236122 -31.06245181 204.84204946 -36.71942139 221.03326416 C-40.44668034 231.70138605 -44.15899413 242.37450351 -47.8515625 253.0546875 C-48.62303513 255.28450927 -49.39451944 257.514327 -50.16601562 259.74414062 C-51.64372885 264.01543401 -53.11855625 268.28770909 -54.59179688 272.56054688 C-56.20375134 277.22976789 -57.83156435 281.89312259 -59.47454834 286.55151367 C-60.00359625 288.05792643 -60.52788567 289.56602656 -61.04547119 291.07641602 C-63.40313533 297.94983942 -65.27530854 303.01733669 -70.9375 307.6875 C-71.45892578 308.13029297 -71.98035156 308.57308594 -72.51757812 309.02929688 C-74.09564729 310.35930197 -75.69886308 311.65101966 -77.3125 312.9375 C-78.23804688 313.69546875 -79.16359375 314.4534375 -80.1171875 315.234375 C-81.91478918 316.70371899 -83.71820741 318.16597545 -85.52734375 319.62109375 C-89.10315061 322.59508179 -92.50210089 325.73597279 -95.88696289 328.92407227 C-99.02017458 331.84864182 -102.26766914 334.38466843 -105.75 336.875 C-110.48853551 340.56638696 -112.05113685 344.27817037 -114.046875 349.84375 C-116.23266917 355.18680242 -119.67658388 359.49830009 -123.3125 363.9375 C-123.83328125 364.58460938 -124.3540625 365.23171875 -124.890625 365.8984375 C-133.38260469 375.37685928 -147.29066658 381.50580951 -159.69140625 383.27734375 C-164.26290596 383.49420806 -167.52549856 382.43347822 -171.3125 379.9375 C-175.93946771 375.05347853 -177.28227026 370.45034367 -178.3125 363.9375 C-178.85777344 364.66195313 -179.40304688 365.38640625 -179.96484375 366.1328125 C-190.80801071 380.03430861 -190.80801071 380.03430861 -199.3359375 381.43359375 C-204.11697175 381.62837663 -207.49623562 381.30983112 -211.875 379.3125 C-216.8536946 374.46146424 -218.32671968 368.90631845 -218.62890625 362.171875 C-218.69174805 360.83769531 -218.69174805 360.83769531 -218.75585938 359.4765625 C-218.79517578 358.55617188 -218.83449219 357.63578125 -218.875 356.6875 C-218.91818359 355.75164062 -218.96136719 354.81578125 -219.00585938 353.8515625 C-219.1116805 351.54701359 -219.21376557 349.24236161 -219.3125 346.9375 C-220.12332031 347.62714844 -220.93414062 348.31679688 -221.76953125 349.02734375 C-271.80271846 391.52055399 -271.80271846 391.52055399 -292.3125 390.9375 C-301.72570394 390.04025481 -308.22401604 385.29033917 -314.8671875 378.87890625 C-316.71557753 376.39606884 -317.45645279 373.89210953 -318.3125 370.9375 C-318.84278809 371.24341064 -319.37307617 371.54932129 -319.91943359 371.86450195 C-331.11895165 378.2732609 -342.44009688 384.11746753 -354.3125 389.1875 C-355.41513184 389.66485596 -356.51776367 390.14221191 -357.65380859 390.6340332 C-359.21736084 391.28698364 -359.21736084 391.28698364 -360.8125 391.953125 C-361.7303125 392.33758789 -362.648125 392.72205078 -363.59375 393.11816406 C-367.9295474 394.4248214 -371.12028134 394.53360933 -375.1875 392.5 C-377.87726372 389.2564614 -377.90641274 387.25299626 -377.9765625 383.15625 C-376.94549327 379.71126574 -375.35501718 378.88486051 -372.3125 376.9375 C-368.53582793 375.11367352 -364.67922279 373.49722564 -360.8125 371.875 C-341.89244751 364.82057292 -341.89244751 364.82057292 -325.3125 353.9375 C-325.20246913 352.17302904 -325.15654307 350.40450594 -325.13671875 348.63671875 C-324.6000386 320.12661759 -320.62482535 289.11098284 -299.3125 267.9375 C-289.82947583 260.80374466 -281.03714371 259.11825227 -269.3125 259.9375 C-263.18444464 260.92779375 -259.54706757 263.97118326 -255.7265625 268.77734375 C-251.2504677 275.61513498 -251.92179022 283.1422057 -253.3125 290.9375 C-260.19766784 318.12204197 -279.11642829 342.15903594 -300.3125 359.9375 C-300.9725 360.2675 -301.6325 360.5975 -302.3125 360.9375 C-302.04590871 365.46955199 -300.19786408 367.74849669 -296.97265625 370.69921875 C-294.30885992 372.68609743 -292.6447191 373.00158114 -289.3125 372.9375 C-276.37606869 371.04494801 -265.02053244 361.0746534 -255.3125 352.9375 C-251.65936178 349.92064411 -247.99078517 346.92363473 -244.3125 343.9375 C-243.80847656 343.52177734 -243.30445313 343.10605469 -242.78515625 342.67773438 C-233.06490833 334.69064787 -221.81007473 325.45329263 -208.53125 326.37109375 C-206.3125 326.9375 -206.3125 326.9375 -203.6875 329.25 C-198.5251189 339.34010851 -201.46045048 353.20553449 -203.3125 363.9375 C-197.95243985 361.46438401 -195.49116096 357.37282226 -192.3125 352.625 C-180.64987577 335.4714702 -180.64987577 335.4714702 -173.328125 333.3671875 C-170.05584116 332.78900201 -167.63234684 332.82377668 -164.5 333.9375 C-160.86913541 337.25714763 -159.50900682 340.64730232 -159.09765625 345.44140625 C-159.03965859 349.76545437 -159.39855501 353.71050443 -160.3125 357.9375 C-160.35074623 360.27051986 -160.35824284 362.60461508 -160.3125 364.9375 C-149.49015729 363.36651477 -142.00194209 357.63343044 -135.078125 349.31640625 C-130.94730706 343.7507688 -127.76264311 338.92107101 -128.57373047 331.79345703 C-128.68320007 330.83103088 -128.79266968 329.86860474 -128.90545654 328.87701416 C-129.54415388 324.26458317 -130.33610659 319.69316558 -131.1953125 315.1171875 C-131.56165637 313.09773936 -131.92752779 311.07820547 -132.29296875 309.05859375 C-132.86489374 305.9265299 -133.44070549 302.79532679 -134.02490234 299.66552734 C-134.59306152 296.60970063 -135.14524112 293.55131458 -135.6953125 290.4921875 C-135.87232697 289.56695282 -136.04934143 288.64171814 -136.23171997 287.68844604 C-137.82785033 278.69428066 -136.81345107 271.38619612 -133.70703125 262.8671875 C-133.43579437 262.09815598 -133.1645575 261.32912445 -132.88510132 260.53678894 C-132.28969434 258.8525241 -131.68982598 257.16983126 -131.08602905 255.48855591 C-130.09407736 252.72639363 -129.11371661 249.96034164 -128.13598633 247.19311523 C-126.67146594 243.050124 -125.20257619 238.90871463 -123.73144531 234.76806641 C-119.74789038 223.53836175 -115.83201508 212.28483418 -111.90759277 201.03436279 C-110.49199927 196.97642958 -109.07467047 192.91910356 -107.65722656 188.86181641 C-101.3272649 170.73999911 -95.03246721 152.60621617 -88.76068115 134.46417236 C-83.13306205 118.18563984 -77.48379761 101.91488369 -71.80102539 85.65551758 C-71.19677002 83.92659761 -70.59252197 82.19767509 -69.98828125 80.46875 C-69.68998917 79.61532516 -69.39169708 78.76190033 -69.08436584 77.88261414 C-67.15169735 72.34981145 -65.22770748 66.81405542 -63.30912781 61.27635193 C-61.96794927 57.40575438 -60.62433385 53.53600451 -59.28060913 49.66629028 C-58.64971342 47.84726699 -58.01995711 46.027848 -57.39151001 44.20797729 C-54.24344032 35.09296128 -51.02955293 26.00719563 -47.59375 16.99609375 C-47.31619873 16.25511948 -47.03864746 15.5141452 -46.75268555 14.75071716 C-43.42783235 6.16265679 -38.60523189 0.92439033 -30.3125 -3.0625 C-19.78068823 -6.57310392 -10.09318169 -3.43648974 0 0 Z M-29.3125 16.9375 C-30.03364343 19.25457597 -30.70653483 21.58767126 -31.3125 23.9375 C-26.2597023 25.7731164 -21.20597313 27.60613626 -16.15136719 29.43676758 C-14.43235916 30.05975398 -12.71360678 30.68344627 -10.99511719 31.30786133 C-8.52345756 32.20580241 -6.05088648 33.10119214 -3.578125 33.99609375 C-2.42790863 34.41489052 -2.42790863 34.41489052 -1.25445557 34.84214783 C2.03624889 36.0306111 5.2836229 37.13078736 8.6875 37.9375 C10.48044661 33.5078672 11.15848438 30.54658439 9.6875 25.9375 C5.46681808 20.51466959 0.16777149 18.83717178 -6.1875 16.625 C-7.15558594 16.26599609 -8.12367188 15.90699219 -9.12109375 15.53710938 C-19.94321549 11.6050561 -19.94321549 11.6050561 -29.3125 16.9375 Z M-37.3125 39.9375 C-37.49438873 40.46255127 -37.67627747 40.98760254 -37.86367798 41.52856445 C-53.42254908 86.43848135 -53.42254908 86.43848135 -61 108.0625 C-61.27027008 108.83385284 -61.54054016 109.60520569 -61.81900024 110.39993286 C-62.09505096 111.18778168 -62.37110168 111.97563049 -62.65551758 112.78735352 C-63.23649824 114.44547268 -63.81747135 116.1035945 -64.3984375 117.76171875 C-64.6964476 118.61224319 -64.9944577 119.46276764 -65.30149841 120.33906555 C-69.67764053 132.8311783 -74.04339307 145.32692527 -78.40823364 157.82299042 C-78.88556875 159.18953924 -79.36292467 160.5560808 -79.84030151 161.92261505 C-86.77007761 181.75986484 -93.67496501 201.60554626 -100.54699707 221.46289062 C-103.93314442 231.24625546 -107.3286518 241.02549222 -110.8046875 250.77734375 C-111.07148819 251.52605743 -111.33828888 252.27477112 -111.61317444 253.0461731 C-112.82589584 256.44560478 -114.0432997 259.84325902 -115.26831055 263.23828125 C-115.67605713 264.37523437 -116.08380371 265.5121875 -116.50390625 266.68359375 C-116.85654541 267.65997803 -117.20918457 268.6363623 -117.57250977 269.64233398 C-118.41478594 271.85283373 -118.41478594 271.85283373 -118.3125 273.9375 C-112.93867144 275.79279552 -107.56349384 277.64410754 -102.18701172 279.49169922 C-100.35720543 280.12113178 -98.52777636 280.75166201 -96.69873047 281.38330078 C-94.07356984 282.28965705 -91.44708946 283.19209058 -88.8203125 284.09375 C-87.99943146 284.37810913 -87.17855042 284.66246826 -86.33279419 284.95544434 C-82.41347713 286.40694073 -82.41347713 286.40694073 -78.3125 286.9375 C-69.77613969 263.29138855 -61.42514242 239.58600955 -53.25 215.8125 C-52.81577708 214.54985502 -52.38155263 213.28721058 -51.94732666 212.02456665 C-51.51322397 210.76222748 -51.07912159 209.49988821 -50.64501953 208.23754883 C-49.79072593 205.75340565 -48.93639694 203.26927464 -48.08203125 200.78515625 C-47.66683228 199.57789383 -47.2516333 198.37063141 -46.82385254 197.12678528 C-42.59434276 184.83668419 -38.30433925 172.56827233 -33.9997406 160.30432129 C-33.71881058 159.50393433 -33.43788055 158.70354736 -33.1484375 157.87890625 C-32.86134415 157.06111694 -32.57425079 156.24332764 -32.27845764 155.40075684 C-29.7220523 148.11452688 -27.17774131 140.82409391 -24.63526535 133.53299522 C-23.91007934 131.45342148 -23.18475099 129.37389743 -22.4593811 127.29438782 C-19.5621952 118.98881303 -19.5621952 118.98881303 -16.66705322 110.68252563 C-15.31559904 106.80358947 -13.96278407 102.92512946 -12.609375 99.046875 C-12.28216524 98.10863923 -12.28216524 98.10863923 -11.94834518 97.1514492 C-9.46791789 90.04228874 -6.96381677 82.942664 -4.41601562 75.85742188 C-4.06389196 74.8771295 -4.06389196 74.8771295 -3.70465469 73.87703323 C-2.58126702 70.75096912 -1.45404277 67.62642574 -0.32098389 64.50384521 C0.07465759 63.40590637 0.47029907 62.30796753 0.87792969 61.17675781 C1.22845398 60.20990051 1.57897827 59.24304321 1.94012451 58.24688721 C2.79013421 56.02491257 2.79013421 56.02491257 2.6875 53.9375 C-6.76059886 50.26941456 -16.28318869 46.90120265 -25.90625 43.71875 C-27.00807617 43.35297852 -28.10990234 42.98720703 -29.24511719 42.61035156 C-31.93378893 41.71801582 -34.6229203 40.82709452 -37.3125 39.9375 Z M-292.15625 286.34765625 C-301.46845889 301.26036813 -307.54288594 317.51659046 -307.375 335.3125 C-307.36597656 336.55773437 -307.35695313 337.80296875 -307.34765625 339.0859375 C-307.33025391 340.49746094 -307.33025391 340.49746094 -307.3125 341.9375 C-305.7965625 340.6690625 -305.7965625 340.6690625 -304.25 339.375 C-303.68152344 338.89933594 -303.11304688 338.42367187 -302.52734375 337.93359375 C-296.79216733 332.76485451 -291.85544428 327.40022159 -287.4375 321.0625 C-286.92646729 320.33144043 -286.41543457 319.60038086 -285.88891602 318.84716797 C-273.65082544 301.03365599 -273.65082544 301.03365599 -269.4375 280.375 C-270.15639168 277.6113389 -270.15639168 277.6113389 -273.3125 275.9375 C-280.45864506 274.74647582 -288.04240258 280.97002095 -292.15625 286.34765625 Z M-118.3125 291.9375 C-116.6625 300.8475 -115.0125 309.7575 -113.3125 318.9375 C-108.77647239 317.8034931 -107.39397272 316.43393607 -104.0625 313.25 C-99.67540494 309.14556341 -95.22075476 305.39718673 -90.3125 301.9375 C-92.63519896 299.61480104 -94.34390489 299.06623616 -97.43359375 297.9921875 C-98.45130859 297.63769531 -99.46902344 297.28320312 -100.51757812 296.91796875 C-101.58427734 296.55316406 -102.65097656 296.18835938 -103.75 295.8125 C-104.81283203 295.43996094 -105.87566406 295.06742187 -106.97070312 294.68359375 C-112.51744614 292.6408375 -112.51744614 292.6408375 -118.3125 291.9375 Z " fill="#000000" transform="translate(416.3125,59.0625)"/>
</svg>
